<svg xmlns="http://www.w3.org/2000/svg" viewBox="0 0 349.18 115.17"><g id="Vert_Black" data-name="Vert Black"><path d="M32.25,38.7c10.66,6,22,8.42,33.08,9.22.06,0,.08.1,0,.12a74,74,0,0,1-17,4.85,77,77,0,0,1-16.13-14.1.06.06,0,0,1,.08-.09Zm18.22,1c11,1.62,22.79.75,32.71-3.55.06,0,.11.05.06.1A66.33,66.33,0,0,1,66.5,47.5a119.07,119.07,0,0,1-16.07-7.68s0-.13,0-.12ZM79.06,52.28a66.21,66.21,0,0,1-14,8.75A57.36,57.36,0,0,1,49.35,53.6a.07.07,0,0,1,0-.12c8,1.52,18.53,2.27,29.6-1.31a.06.06,0,0,1,.06.11ZM64,61.56a62.63,62.63,0,0,1-14.84,4.77A53.52,53.52,0,0,1,36.84,56.19c-.05,0,0-.12.07-.1a61.85,61.85,0,0,0,27,5.35.06.06,0,0,1,0,.12Zm-24.31,6.8c5.82,2.17,14.41,3.77,24.1,4.06,0,0,.05-.07,0-.08A69.33,69.33,0,0,1,50.17,67a.06.06,0,0,1,0-.12,64.77,64.77,0,0,0,26.39-3c4.07-13.24,7.94-28.2,11.31-44.11a.08.08,0,0,0-.13-.07C78.52,29,62.45,36.83,49.27,39.07,41.43,34.23,34.88,28.13,27,19.79a.08.08,0,0,0-.14.07C30.45,36,34.63,52.14,39.66,68.36Z"/><path d="M92.64,90.82a2,2,0,0,1-.63.1,1,1,0,0,1-1-1.09c0-.92.53-1.44,1.58-1.68v2.67Zm3.12.59c-.54,0-.73-.28-.73-1.08V87c0-1.77-.86-2.69-2.47-2.69a3.85,3.85,0,0,0-3.35,1.8l.15.15a2.81,2.81,0,0,1,1.85-.7c1.07,0,1.43.65,1.43,1.83v.33c-1.7.34-3.69.76-3.69,2.81a1.66,1.66,0,0,0,1.71,1.78,2.43,2.43,0,0,0,2-1.13,1.47,1.47,0,0,0,1.58,1.12,1.74,1.74,0,0,0,1.51-.76l0-.12Z"/><path d="M32.89,87.13l-2.11,0c0-1.36.39-2.38,1.16-2.38.58,0,.95.37.95,1.78v.57ZM32,84.3c-2.25,0-3.71,1.4-3.71,3.87,0,2.23,1.39,4.13,3.65,4.13A3.13,3.13,0,0,0,35.2,90l-.12-.06a2.38,2.38,0,0,1-1.88.73c-1.3,0-2.35-.68-2.42-3l4.43,0A3.06,3.06,0,0,0,32,84.3Z"/><path d="M28.92,84.42l-.39-3.36c-.86,0-1.8.13-2.75.13H22.07c-1,0-1.86-.08-2.72-.13L19,84.42h.2c1.59-2.28,2.36-2.71,3-2.72l.49,0v7.26A12.47,12.47,0,0,1,22.37,92v.07h3.2V92a10.28,10.28,0,0,1-.3-3.07V81.68l.49,0c.6,0,1.37.44,3,2.72Z"/><polygon points="54.37 83.14 54.46 82.5 48.94 82.5 48.85 83.14 54.37 83.14 54.37 83.14"/><path d="M55.07,84.54H52.43v.07a5.48,5.48,0,0,1,.24,1.79V90a1.24,1.24,0,0,1-1.09.79c-.67,0-.95-.48-.95-1.09V84.54h-2.5v.09a10.68,10.68,0,0,1,.12,1.78v3.53c0,1.43.71,2.36,2,2.36a2.87,2.87,0,0,0,2.44-1.65l0,0v1.41h2.64V92a10,10,0,0,1-.31-3V84.54Z"/><path d="M68.88,87.13l-2.11,0c0-1.36.39-2.38,1.16-2.38.58,0,.95.37.95,1.78v.57ZM68,84.3c-2.25,0-3.71,1.4-3.71,3.87,0,2.23,1.39,4.13,3.65,4.13A3.13,3.13,0,0,0,71.19,90l-.12-.06a2.38,2.38,0,0,1-1.88.73c-1.3,0-2.35-.68-2.42-3l4.43,0A3.06,3.06,0,0,0,68,84.3Z"/><path d="M79.41,86.37a2,2,0,0,0-2.23-2.07A2.42,2.42,0,0,0,75,85.73l0,0V84.3l-2.71.79v.07a5.71,5.71,0,0,1,.38,2.32v2A18.94,18.94,0,0,1,72.44,92v.07h2.69V92A14.53,14.53,0,0,1,75,89.46v-3c.15-.44.48-1,1.05-1s1,.54,1,1.18v2.81A16.82,16.82,0,0,1,76.85,92v.07H79.7V92a8.92,8.92,0,0,1-.29-2.56V86.37Z"/><path d="M84.67,95c-1.46,0-2.48-.47-2.48-1.46a1.41,1.41,0,0,1,.22-.75,9.07,9.07,0,0,0,1.06.17l1.32.15c1.4.17,2,.27,2,.9s-.91,1-2.16,1Zm-.43-10.19c.71,0,1,.7,1,2.26s-.3,2.31-1,2.31-1-.72-1-2.31.23-2.26.94-2.26Zm1.46,6L84,90.61c-1-.12-1.35-.21-1.35-.64a.6.6,0,0,1,.13-.4,4.45,4.45,0,0,0,1.5.26c2.07,0,3.29-1,3.29-2.73a2.36,2.36,0,0,0-.74-1.8l1.75.12h.06V83.69l-.09,0L86.41,85a3.23,3.23,0,0,0-2.17-.66c-1.92,0-3.29,1.16-3.29,2.74a2.5,2.5,0,0,0,1.34,2.28,2.21,2.21,0,0,0-1.4,1.89A1.43,1.43,0,0,0,82,92.63c-.88.11-1.73.51-1.73,1.24,0,1.08,1.5,1.63,3.77,1.63,2.42,0,4.33-1,4.33-2.59,0-1.32-1.24-2-2.62-2.11Z"/><path d="M61.22,86.9l.52-.46A21.84,21.84,0,0,1,64,84.67v-.13H61.45l-.53,2-1.59,1.25V80.49l-2.7.86v.08a6.6,6.6,0,0,1,.3,2.32v6A10.18,10.18,0,0,1,56.78,92v.07h2.69V92a11.89,11.89,0,0,1-.14-2.26V88.38l2,3.7h3V92a9.4,9.4,0,0,1-1-1.46L61.22,86.9Z"/><path d="M42.53,87.13h-.44V81.7a3.62,3.62,0,0,1,.45,0c1.21,0,1.92,1.06,1.92,2.5s-.57,2.95-1.93,2.95Zm.66-5.94h-4v.07a12,12,0,0,1,.24,3.07v4.61A12,12,0,0,1,39.19,92v.07h3.2V92a10.28,10.28,0,0,1-.3-3.07V87.62h.81c3,0,4.28-1.54,4.28-3.44,0-1.73-1-3-4-3Z"/><path d="M205.65,83.88a5,5,0,0,1-1.43.22c-.7,0-1.52-.14-1.52-1,0-1.12,2.24-.87,2.91-1.48v1.92a2,2,0,0,0,0,.3m2,1.17a8.27,8.27,0,0,1-.11-1V80c0-1.81-1.31-2.55-3.06-2.55a8.31,8.31,0,0,0-3.23.68l.67,1.42a6.41,6.41,0,0,1,2.28-.47c.49,0,1.37.06,1.37.72,0,1.36-5.08.28-5.08,3.44,0,1.84,2.1,2.38,3.68,2.38a12.47,12.47,0,0,0,3.48-.61m-10.58.44h2V77.66h-2v7.83ZM199.28,75a1.17,1.17,0,0,0-1.22-1.11A1.12,1.12,0,0,0,196.88,75a1.09,1.09,0,0,0,1.18,1.09A1.13,1.13,0,0,0,199.28,75m-5.72,5.81h-3.37a1.71,1.71,0,0,1,1.7-1.76,1.61,1.61,0,0,1,1.67,1.76m2,.43a3.5,3.5,0,0,0-3.72-3.74c-2.5,0-3.8,1.83-3.8,4.1a3.91,3.91,0,0,0,4.2,4.07,7.59,7.59,0,0,0,2.82-.57l-.63-1.46a5.79,5.79,0,0,1-2.08.41,1.94,1.94,0,0,1-2.19-1.77h5.29a7.34,7.34,0,0,0,.11-1M188,77.66a6.5,6.5,0,0,0-1.5-.17,10.21,10.21,0,0,0-3.74.86,9,9,0,0,1,.15,1.18v6h2v-6l0-.16a5.21,5.21,0,0,1,1.47-.2,4.24,4.24,0,0,1,1.08.16l.59-1.62Zm-9.15,7.83h2V77.66h-2v7.83ZM181,75a1.16,1.16,0,0,0-1.21-1.11A1.12,1.12,0,0,0,178.58,75a1.09,1.09,0,0,0,1.18,1.09A1.13,1.13,0,0,0,181,75m-3.68,10.35-.54-1.52a4.88,4.88,0,0,1-1.46.31c-.49,0-.76-.19-.76-.67V79.29h2.3V77.66h-2.3V75.52h-2V77.7l-.94,0v1.49l.94,0V83.6c0,1.52,1,2.17,2.52,2.17a7.16,7.16,0,0,0,2.2-.43m-9.26.15h2V77.66h-2v7.83ZM170.2,75A1.17,1.17,0,0,0,169,73.88,1.12,1.12,0,0,0,167.8,75,1.09,1.09,0,0,0,169,76.08,1.13,1.13,0,0,0,170.2,75m-4,10.5V80.26a2.53,2.53,0,0,0-2.8-2.77A6.49,6.49,0,0,0,161,78V74h-2V85.49h2V79.7a4.06,4.06,0,0,1,1.89-.58,1.32,1.32,0,0,1,1.37,1.43v4.94Zm-8.27-10.71h-2.1l-2,7.32c-.06.23-.14.47-.19.7h0l-2.48-8h-2.39l-2.2,7.32c-.06.23-.14.47-.19.7h0l-2.26-8h-2.32l3,9.33c.41,1.29,1.42,1.54,2.62,1.54l2.54-8,2,6.48c.4,1.27,1.51,1.54,2.74,1.54l3.28-10.87Z"/><path d="M207.32,91.75a2.79,2.79,0,0,1-2.94,3.11,4.75,4.75,0,0,1-1-.1V89.09a6.2,6.2,0,0,1,1.14-.11,2.53,2.53,0,0,1,2.79,2.77m.69,0c0-2.15-1.32-3.34-3.48-3.34a9.28,9.28,0,0,0-1.82.18v6.69a8.58,8.58,0,0,0,1.6.15,3.41,3.41,0,0,0,3.7-3.68m-7,3.53V88.52h-.68v6.13h0a3.18,3.18,0,0,0-.17-.35l-3.55-5.78h-1v6.8h.68V89.15h0a1.5,1.5,0,0,0,.15.35l3.25,5.23a1.21,1.21,0,0,0,.94.64,1.05,1.05,0,0,0,.38-.09m-8.11-2.51H190.2l1.28-3.25.08-.22,1.35,3.47Zm1.74,2.55L192,88.52h-.68l-2.8,6.8h.69l.78-2h3.19l.79,2Zm-6.45,0v-.57h-2.87V88.52h-.68v6.8Zm-6.32-2.55h-2.72l1.28-3.25.08-.22,1.36,3.47Zm1.73,2.55-2.69-6.8h-.68l-2.79,6.8h.68l.78-2h3.19l.79,2Zm-6.75,0v-.57H174V92.06h2.32v-.58H174V89.09h2.78v-.57h-3.46v6.8ZM172,89.09v-.57h-4.64v.57h3.88l-3.81,5.39a.87.87,0,0,0-.25.58.8.8,0,0,0,0,.26H172v-.57h-4l4-5.66ZM164,88.52h-.65l-1.66,5.54a3.13,3.13,0,0,0-.09.44h0l-1.74-6H159l-1.65,5.53a2.84,2.84,0,0,0-.09.45h0l-1.78-6h-.73l1.88,6.06c.26.82.76.84.94.84l1.77-5.89a1.32,1.32,0,0,0,0-.24s0,.12.07.24l1.48,5c.24.82.74.84.95.84l2.12-6.9Zm-9.95,6.8v-.57h-2.87V92.06h2.33v-.58h-2.33V89.09H154v-.57h-3.46v6.8Zm-5.14,0V88.52h-.69v6.13h0a2.58,2.58,0,0,0-.16-.35l-3.55-5.78h-1v6.8h.68V89.15h0a1.84,1.84,0,0,0,.14.35l3.25,5.23a1.22,1.22,0,0,0,.95.64,1.1,1.1,0,0,0,.38-.09"/><path d="M178.55,56l1.87-5.79c2.61,1.7,5.2,3.45,7.72,5.28-.48,1.94-1,3.89-1.54,5.82l-.53-.36c-2.47-1.71-5-3.35-7.52-4.95"/><path d="M177.54,68.72c-11.82-7.66-23.65-15.41-34.77-24a3.84,3.84,0,0,1-1-4.42,29.11,29.11,0,0,1,2.64-5.48,3.68,3.68,0,0,1,4.21-1.49A183.26,183.26,0,0,1,173.7,46l-1.9,5.88a209,209,0,0,0-25-12.66l-.18.29c10.75,8,21.9,15.44,33,22.93q-1,3.13-2.05,6.24"/><path d="M206.15,53,206,54c-.23,1.31-.48,2.6-.75,3.9A3.5,3.5,0,0,1,204,60.21c-.54.3-1.09.07-1.67-.42l-1.19-1c.47-1.91.88-3.81,1.26-5.73l.34-1.8.22-1.22c1.1,1,2.17,2,3.22,3M200.5,20.12h0a.55.55,0,0,1,.61-.49,1.81,1.81,0,0,1,1,.36,33.56,33.56,0,0,1,3.11,2.73,5.49,5.49,0,0,1,1.69,2.93l0,.13a81.67,81.67,0,0,1,.18,20.31q-1.56-1.55-3.18-3a85.66,85.66,0,0,0,.14-19.47h-.35a263.56,263.56,0,0,1-4.18,26.18l-3.73-3.24c1.94-8.75,3.3-17.57,4.7-26.41"/><path d="M183.27,21.84c.32-.66,1.44-.74,2.19-.38a20.67,20.67,0,0,1,4.92,3.08A3.93,3.93,0,0,1,192,27.31c0,2.13,0,4.15-.18,6.16q-2.27-1.57-4.6-3.08c.1-1.07.18-2.15.24-3.22l-.34-.07q-1.63,4.77-3.2,9.55l-4.85-3.94c1.32-3.66,2.69-7.29,4.19-10.87m-6.61,17.9h0l5,4c-1.69,5.22-3.35,10.44-5.06,15.64L171.4,56c1.75-5.4,3.46-10.82,5.26-16.21m7.87,28.43h0a4.16,4.16,0,0,1-1.94,2.48,2.84,2.84,0,0,1-2.69-.43l-1.62-1c1.19-3.39,2.26-6.82,3.26-10.26,1.4.91,2.79,1.83,4.15,2.78l.67.46q-.86,2.92-1.78,5.82l-.05.17Zm3.83-13.56h0c-1.57-1.13-3.17-2.23-4.77-3.3,1.11-4.56,2.07-9.16,2.78-13.79q2.38,1.51,4.7,3.14c-.66,4.69-1.62,9.35-2.71,14"/><path d="M185.12,35.75,186.69,31c3.42,2.2,6.75,4.54,9.95,7-.3,1.63-.62,3.26-1,4.9q-5.12-3.86-10.56-7.22m-15.56-3h0a3.45,3.45,0,0,1-1-3.24,15.89,15.89,0,0,1,2.17-5.11,2.11,2.11,0,0,1,2.48-.72c2.38,1.07,4.7,2.26,7,3.52-.6,1.56-1.18,3.14-1.75,4.72-1-.56-2.09-1.1-3.16-1.63l-.19.28c3.4,2.76,6.81,5.51,10.19,8.29q-.5,3-1.11,5.93c-4.9-4-9.81-8-14.63-12m20.75,17h0c.41-1.94.79-3.88,1.12-5.83,3.43,2.88,6.81,5.79,10.14,8.77-.37,1.84-.76,3.64-1.19,5.43-3.32-2.83-6.69-5.61-10.07-8.37M207,47.17h0c-.25,2.15-.55,4.08-.66,4.83-1-1-2-1.91-3.06-2.83L203,49l-2.09-1.79c.34-1.59.64-3.18.92-4.78,1.76,1.54,3.48,3.13,5.12,4.79"/><path d="M283.29,45.85l9-8.93,8.94,9-9,8.93-8.94-9Zm34.77-25.67a37.38,37.38,0,0,1-.79,12.73,14.76,14.76,0,0,1,.71,6.85,13.36,13.36,0,0,0-1.19-4.89c-.33,1.25-.74,2.56-1.22,3.9,3.9,8,2.56,14.15,2.56,14.15s.32-4.77-3.53-11.71a46.77,46.77,0,0,1-2.34,4.71c7.71,13.74,5.68,25.76,5.68,25.76s-12,2-25.73-5.8a48.77,48.77,0,0,1-4.72,2.32c6.92,3.89,11.69,3.59,11.69,3.59S293,73.09,285,69.16c-1.35.48-2.65.88-3.9,1.21a13.14,13.14,0,0,0,4.87,1.2,14.48,14.48,0,0,1-6.83-.74,36.94,36.94,0,0,1-12.74.73,37.07,37.07,0,0,1,.79-12.73,14.62,14.62,0,0,1-.7-6.84,13.12,13.12,0,0,0,1.18,4.88c.33-1.25.74-2.55,1.22-3.89-3.89-8-2.56-14.15-2.56-14.15s-.32,4.77,3.53,11.71a47.86,47.86,0,0,1,2.34-4.71c-7.71-13.74-5.68-25.76-5.68-25.76s12-2,25.74,5.8A46.48,46.48,0,0,1,297,23.55C290.09,19.66,285.32,20,285.32,20s6.19-1.3,14.14,2.63c1.34-.48,2.65-.88,3.9-1.21a13.14,13.14,0,0,0-4.87-1.2,14.75,14.75,0,0,1,6.84.73,37.19,37.19,0,0,1,12.73-.73m-7.59,28.66a54.42,54.42,0,0,1-6.91,8.39,54,54,0,0,1-8.42,6.87c12.71,8,22.8,7.58,22.8,7.58s.44-10.09-7.47-22.84m-44,22.72a34.15,34.15,0,0,0,10.36-1.73,19.33,19.33,0,0,1-4.94-3.65,19.7,19.7,0,0,1-3.64-5,34.07,34.07,0,0,0-1.78,10.34m12.33-2.38c1.17-.41,2.4-.9,3.67-1.46a38.61,38.61,0,0,1-12.08-12.14c-.57,1.27-1.06,2.5-1.47,3.67a26.76,26.76,0,0,0,4.32,5.57,27.08,27.08,0,0,0,5.56,4.36m6.08-2.6c1.43-.73,2.91-1.55,4.43-2.49A54.92,54.92,0,0,1,274,48.76c-1,1.51-1.79,3-2.52,4.42a51.41,51.41,0,0,0,13.34,13.4m7.36-4.44A68.44,68.44,0,0,0,301,54.7a68.74,68.74,0,0,0,7.48-8.79A70.32,70.32,0,0,0,292.29,29.6,70.1,70.1,0,0,0,276,45.84a68.38,68.38,0,0,0,7.45,8.82,67.89,67.89,0,0,0,8.78,7.48M310.48,43c.95-1.52,1.78-3,2.51-4.42a51.41,51.41,0,0,0-13.34-13.4q-2.14,1.08-4.43,2.49a53.85,53.85,0,0,1,8.39,6.91A53.07,53.07,0,0,1,310.48,43m3.66-6.82c.57-1.28,1.06-2.5,1.48-3.67a28.89,28.89,0,0,0-9.89-9.93c-1.17.41-2.39.9-3.67,1.46a37.67,37.67,0,0,1,6.72,5.39,37.18,37.18,0,0,1,5.36,6.75m2.14-5.64a34.11,34.11,0,0,0,1.78-10.35,34,34,0,0,0-10.36,1.74,20.33,20.33,0,0,1,8.58,8.61m-26.92-2.88c-12.71-8-22.8-7.58-22.8-7.58S266.12,30.16,274,42.9a55.06,55.06,0,0,1,15.32-15.25"/><path d="M305,88.4h2.42V88a2.92,2.92,0,0,0-.26-1.52,1,1,0,0,0-.95-.42,1,1,0,0,0-.94.43,2.91,2.91,0,0,0-.28,1.51c0,.2,0,.35,0,.45m2.5,3.06h2.34s0,.12,0,.21a1.79,1.79,0,0,1,0,.21,3.68,3.68,0,0,1-.88,2.7,3.9,3.9,0,0,1-2.79.85,4.88,4.88,0,0,1-1.69-.26,2.53,2.53,0,0,1-1.11-.78,3.63,3.63,0,0,1-.73-1.57,18.52,18.52,0,0,1-.21-3.42,14,14,0,0,1,.2-2.81,3.15,3.15,0,0,1,.63-1.38,2.9,2.9,0,0,1,1.22-.84,5,5,0,0,1,1.78-.28,4.25,4.25,0,0,1,1.71.31,2.94,2.94,0,0,1,1.2.92,3.62,3.62,0,0,1,.57,1.35,13.94,13.94,0,0,1,.16,2.63v.82H305l0,.25v.43a5.65,5.65,0,0,0,.28,2.15,1,1,0,0,0,1,.62,1,1,0,0,0,1-.5,3.25,3.25,0,0,0,.3-1.61"/><path d="M318.42,91a1.69,1.69,0,0,1,0,.23c0,.09,0,.21,0,.37a4.36,4.36,0,0,1-.86,3,3.36,3.36,0,0,1-2.64.95,3.14,3.14,0,0,1-2.83-1.21c-.53-.8-.8-2.29-.79-4.46s.27-3.66.81-4.47a3.17,3.17,0,0,1,2.84-1.2,3.47,3.47,0,0,1,2.62.89,3.85,3.85,0,0,1,.84,2.73v.39h-2.38v-.24a3,3,0,0,0-.25-1.4,1,1,0,0,0-1.65,0,2.84,2.84,0,0,0-.26,1.4v3.71a3.46,3.46,0,0,0,.24,1.54.85.85,0,0,0,.82.44.9.9,0,0,0,.89-.5,5.08,5.08,0,0,0,.25-1.88v-.23l2.34,0Z"/><polygon points="268.9 95.45 266.15 81.11 268.92 81.12 270.64 91.98 272.53 81.13 274.75 81.14 276.78 92.21 278.33 81.14 281.06 81.15 278.43 95.47 275.26 95.46 273.63 86.41 272.08 95.45 268.9 95.45 268.9 95.45"/><polygon points="290.63 81.17 293.1 81.18 293.07 95.5 290.59 95.5 290.63 81.17 290.63 81.17"/><path d="M283.8,88.46h2.42V88a3,3,0,0,0-.27-1.52,1.26,1.26,0,0,0-1.89,0,3,3,0,0,0-.28,1.51c0,.2,0,.36,0,.45m2.49,3.06h2.35a1.79,1.79,0,0,0,0,.21V92a3.64,3.64,0,0,1-.88,2.7,3.9,3.9,0,0,1-2.79.85,4.78,4.78,0,0,1-1.68-.26,2.61,2.61,0,0,1-1.12-.78,3.69,3.69,0,0,1-.73-1.57,17.89,17.89,0,0,1-.2-3.42,15,15,0,0,1,.19-2.81,3.27,3.27,0,0,1,.64-1.38,2.87,2.87,0,0,1,1.21-.84,5,5,0,0,1,1.78-.28,4.26,4.26,0,0,1,1.72.31,2.9,2.9,0,0,1,1.19.91,3.43,3.43,0,0,1,.57,1.36,14.71,14.71,0,0,1,.17,2.63v.82h-4.9a2,2,0,0,0,0,.25c0,.09,0,.23,0,.43a5.65,5.65,0,0,0,.28,2.15,1,1,0,0,0,1,.62,1,1,0,0,0,1-.49,3.3,3.3,0,0,0,.3-1.62"/><polygon points="297.61 95.32 297.64 83.36 294.57 83.35 294.58 80.99 303.39 81.01 303.38 83.37 300.31 83.36 300.28 95.33 297.61 95.32 297.61 95.32"/><rect x="115.2" y="19.91" width="1.95" height="75.72"/><rect x="232.33" y="19.91" width="1.38" height="75.72"/></g></svg>